<svg xmlns="http://www.w3.org/2000/svg" viewBox="0 0 270 88" preserveAspectRatio="xMinYMid meet">
  <defs>
    <linearGradient id="lg_navy" x1="0" y1="0" x2="0.4" y2="1">
      <stop offset="0%" stop-color="#4DB6AC"/>
      <stop offset="100%" stop-color="#80CBC4"/>
    </linearGradient>
    <linearGradient id="lg_teal" x1="0" y1="0" x2="1" y2="0.8">
      <stop offset="0%" stop-color="#26A69A"/>
      <stop offset="100%" stop-color="#4DB6AC"/>
    </linearGradient>
    <linearGradient id="lg_amber" x1="0" y1="0" x2="1" y2="1">
      <stop offset="0%" stop-color="#F5B041"/>
      <stop offset="100%" stop-color="#F9D088"/>
    </linearGradient>
  </defs>
  <rect width="270" height="88" fill="#0A1733"/>
  <circle cx="28" cy="12" r="5.8" fill="url(#lg_navy)"/>
  <path d="M25.5 17.5 L25.5 36 Q25.5 38 27 39 L30.5 39 Q30.5 38 30.5 36 L30.5 17.5 Z" fill="url(#lg_navy)"/>
  <path d="M27 36 L16.5 42" stroke="url(#lg_navy)" stroke-width="4" stroke-linecap="round" fill="none"/>
  <circle cx="14.5" cy="43.5" r="4.2" fill="url(#lg_navy)"/>
  <path d="M29 34 L41 26" stroke="url(#lg_navy)" stroke-width="3.8" stroke-linecap="round" fill="none"/>
  <circle cx="42.5" cy="24.5" r="3.8" fill="url(#lg_amber)"/>
  <rect x="23" y="39" width="6" height="27" rx="3" fill="url(#lg_navy)"/>
  <path d="M42 16 L54 16 C64 16 72 20 77 28 C81 34 81 42 81 46 C81 50 81 58 77 64 C72 72 64 76 54 76 L42 76 Z" fill="url(#lg_teal)"/>
  <path d="M50 28 L55 28 C60 28 64 31 66 36 C67.5 39 67.5 43 67.5 46 C67.5 49 67.5 53 66 56 C64 61 60 64 55 64 L50 64 Z" fill="#0A1733"/>
  <polyline points="53.5,48 57.8,53.5 66.5,40" fill="none" stroke="url(#lg_amber)" stroke-width="3.2" stroke-linecap="round" stroke-linejoin="round"/>
  <text x="94" y="56" font-family="'Inter Tight','Segoe UI','Helvetica Neue',Arial,system-ui,sans-serif" font-size="26" letter-spacing="-0.3">
    <tspan font-weight="400" fill="#F0F0F2">Inveris</tspan>
    <tspan font-weight="700" fill="#4DB6AC">Digital</tspan>
  </text>
</svg>
